<?xml version="1.0" encoding="utf-8"?>
<svg version="1.1" xmlns="http://www.w3.org/2000/svg" xmlns:xlink="http://www.w3.org/1999/xlink" viewBox="0 0 3244 2684" enable-background="new 0 0 3244 2684" xml:space="preserve" preserveAspectRatio="xMidYMid meet">
<g stroke="black" stroke-width="0" fill="black">
 <circle cx="1747" cy="797" r="25" />
 <circle cx="1747" cy="1097" r="25" />
 <circle cx="1397" cy="1997" r="25" />
</g>
<g stroke="black" fill="none">
</g>
<g stroke="black" stroke-width="0" fill="black">
</g>
<g stroke="black" stroke-linecap="round" >
 <line x1="547" y1="547" x2="647" y2="547" stroke-width="10" />
 <line x1="647" y1="547" x2="647" y2="1497" stroke-width="10" />
 <line x1="647" y1="1497" x2="547" y2="1497" stroke-width="10" />
 <line x1="547" y1="1497" x2="547" y2="547" stroke-width="10" />
 <line x1="647" y1="647" x2="747" y2="647" stroke-width="10" />
 <line x1="647" y1="797" x2="747" y2="797" stroke-width="10" />
 <line x1="647" y1="947" x2="747" y2="947" stroke-width="10" />
 <line x1="647" y1="1097" x2="747" y2="1097" stroke-width="10" />
 <line x1="647" y1="1247" x2="747" y2="1247" stroke-width="10" />
 <line x1="647" y1="1397" x2="747" y2="1397" stroke-width="10" />
 <line x1="2147" y1="97" x2="3147" y2="97" stroke-width="10" />
 <line x1="3147" y1="97" x2="3147" y2="2097" stroke-width="10" />
 <line x1="3147" y1="2097" x2="2147" y2="2097" stroke-width="10" />
 <line x1="2147" y1="2097" x2="2147" y2="97" stroke-width="10" />
 <line x1="2147" y1="247" x2="2047" y2="247" stroke-width="10" />
 <line x1="2147" y1="797" x2="2047" y2="797" stroke-width="10" />
 <line x1="2147" y1="1097" x2="2047" y2="1097" stroke-width="10" />
 <line x1="2147" y1="1697" x2="2047" y2="1697" stroke-width="10" />
 <line x1="2147" y1="1847" x2="2047" y2="1847" stroke-width="10" />
 <line x1="2147" y1="1997" x2="2047" y2="1997" stroke-width="10" />
 <line x1="2047" y1="797" x2="1747" y2="797" stroke-width="10" />
 <line x1="1747" y1="797" x2="1747" y2="922" stroke-width="10" />
 <line x1="1747" y1="922" x2="1822" y2="922" stroke-width="10" />
 <line x1="1822" y1="972" x2="1747" y2="972" stroke-width="10" />
 <line x1="1747" y1="972" x2="1672" y2="972" stroke-width="10" />
 <line x1="1672" y1="922" x2="1747" y2="922" stroke-width="10" />
 <line x1="2047" y1="1097" x2="1747" y2="1097" stroke-width="10" />
 <line x1="1747" y1="1097" x2="1747" y2="1197" stroke-width="10" />
 <line x1="1647" y1="1197" x2="1847" y2="1197" stroke-width="10" />
 <line x1="1672" y1="1227" x2="1822" y2="1227" stroke-width="10" />
 <line x1="1697" y1="1257" x2="1797" y2="1257" stroke-width="10" />
 <line x1="1722" y1="1287" x2="1772" y2="1287" stroke-width="10" />
 <line x1="1747" y1="1097" x2="1747" y2="972" stroke-width="10" />
 <line x1="1747" y1="797" x2="1747" y2="697" stroke-width="10" />
 <line x1="1747" y1="697" x2="1672" y2="697" stroke-width="10" />
 <line x1="1672" y1="697" x2="1747" y2="622" stroke-width="10" />
 <line x1="1747" y1="622" x2="1822" y2="697" stroke-width="10" />
 <line x1="1822" y1="697" x2="1747" y2="697" stroke-width="10" />
 <line x1="747" y1="797" x2="1747" y2="797" stroke-width="10" />
 <line x1="747" y1="947" x2="1347" y2="947" stroke-width="10" />
 <line x1="1347" y1="947" x2="1347" y2="1097" stroke-width="10" />
 <line x1="1347" y1="1097" x2="1747" y2="1097" stroke-width="10" />
 <line x1="747" y1="1097" x2="1197" y2="1097" stroke-width="10" />
 <line x1="1197" y1="1097" x2="1197" y2="1697" stroke-width="10" />
 <line x1="1197" y1="1697" x2="2047" y2="1697" stroke-width="10" />
 <line x1="747" y1="1247" x2="1047" y2="1247" stroke-width="10" />
 <line x1="1047" y1="1247" x2="1047" y2="1847" stroke-width="10" />
 <line x1="1047" y1="1847" x2="2047" y2="1847" stroke-width="10" />
 <line x1="747" y1="1397" x2="897" y2="1397" stroke-width="10" />
 <line x1="897" y1="1397" x2="897" y2="1997" stroke-width="10" />
 <line x1="897" y1="1997" x2="1397" y2="1997" stroke-width="10" />
 <line x1="1397" y1="1997" x2="2047" y2="1997" stroke-width="10" />
 <line x1="747" y1="647" x2="847" y2="647" stroke-width="10" />
 <line x1="847" y1="647" x2="847" y2="247" stroke-width="10" />
 <line x1="847" y1="247" x2="2047" y2="247" stroke-width="10" />
 <line x1="1397" y1="1997" x2="1397" y2="2097" stroke-width="10" />
 <line x1="1397" y1="2097" x2="1447" y2="2097" stroke-width="10" />
 <line x1="1447" y1="2097" x2="1447" y2="2397" stroke-width="10" />
 <line x1="1447" y1="2397" x2="1397" y2="2397" stroke-width="10" />
 <line x1="1397" y1="2397" x2="1347" y2="2397" stroke-width="10" />
 <line x1="1347" y1="2397" x2="1347" y2="2097" stroke-width="10" />
 <line x1="1347" y1="2097" x2="1397" y2="2097" stroke-width="10" />
 <line x1="1397" y1="2397" x2="1397" y2="2497" stroke-width="10" />
 <line x1="1297" y1="2497" x2="1497" y2="2497" stroke-width="10" />
 <line x1="1322" y1="2527" x2="1472" y2="2527" stroke-width="10" />
 <line x1="1347" y1="2557" x2="1447" y2="2557" stroke-width="10" />
 <line x1="1372" y1="2587" x2="1422" y2="2587" stroke-width="10" />
</g>
<g stroke="black" stroke-width="0" fill="black">
</g>
<g stroke="black" fill="black" font-family="Consolas,Source Code,Monaco,Lucida Console,Monospace">
 <text x="557" y="1400" font-size="70" transform="rotate(270,557,1347)" >ICSP conn (NSDSP)
</text> <text x="677" y="604" font-size="100" >1
</text> <text x="247" y="684" font-size="100" >MCLR
</text> <text x="297" y="834" font-size="100" >VDD
</text> <text x="297" y="984" font-size="100" >VSS
</text> <text x="97" y="1134" font-size="100" >ICSPDAT
</text> <text x="97" y="1284" font-size="100" >ICSPCLK
</text> <text x="297" y="1434" font-size="100" >LVP
</text> <text x="2207" y="284" font-size="100" >MCLR
</text> <text x="2207" y="834" font-size="100" >VDD
</text> <text x="2207" y="1134" font-size="100" >VSS
</text> <text x="2207" y="1734" font-size="100" >ICSPDAT
</text> <text x="2207" y="1884" font-size="100" >ICSPCLK
</text> <text x="2207" y="2034" font-size="100" >PGM
</text> <text x="2447" y="531" font-size="200" >PIC
</text> <text x="1547" y="933" font-size="80" >C1
</text> <text x="1427" y="1033" font-size="80" >100nF
</text> <text x="1847" y="658" font-size="80" >Vdd
</text> <text x="1227" y="2158" font-size="80" >R1
</text> <text x="1187" y="2258" font-size="80" >10K
</text></g>
<g stroke="white" stroke-width="0" fill="white">
</g>
</svg>
